<svg xmlns="http://www.w3.org/2000/svg" viewBox="0 0 256.93 256.93"><defs><style>.cls-1{fill:#931b22;}.cls-2{fill:#fff;}</style></defs><title>Prancheta 9</title><g id="Camada_2" data-name="Camada 2"><g id="iso"><circle class="cls-1" cx="128.46" cy="128.46" r="128.46"/><path class="cls-2" d="M162.47,103.79q-3.19,3.6-9.07,3.6-7.47,0-10.13-5.64-1.61-3.5-1.6-12.64V74.32H80.06v36h26.67q0-9.6,1.35-12.81,2.42-5.59,10-5.6a12.1,12.1,0,0,1,8.36,3.47,18.16,18.16,0,0,1,2.43,9.6v31.74q0,13.88-10.66,13.87a10.54,10.54,0,0,1-9.07-4.39A42.17,42.17,0,0,1,107,131.66H80.06v49.08H103.7q13.15,0,13.16,11.6a15.09,15.09,0,0,1-3.2,9.17,12.36,12.36,0,0,1-8.8,3.23H43.78q-11.73,0-11.73-12.4,0-11.59,13.87-11.6h8.8V74.32h-4.8q-10.14,0-14-2.77t-3.86-9.37A10.63,10.63,0,0,1,35,54.27q2.13-3.17,8.53-4H153.4q12.27,0,12.27,13.07V95.66A11.93,11.93,0,0,1,162.47,103.79Z"/><path class="cls-2" d="M217.68,199.94q-7.2,6.67-18.67,6.67-11.2,0-18.4-6.4t-7.21-16.8a21.34,21.34,0,0,1,7.34-16.67q7.33-6.54,18.27-6.54,25.86,0,25.87,23.21A21.6,21.6,0,0,1,217.68,199.94Z"/></g></g></svg>