<svg xmlns="http://www.w3.org/2000/svg" viewBox="0 0 1012.45 221.99"><defs><style>.cls-1{fill:#931b22;}.cls-2{fill:#fff;}</style></defs><title>Prancheta 7</title><g id="Camada_2" data-name="Camada 2"><g id="logotipo_reduzido" data-name="logotipo reduzido"><rect class="cls-1" width="221.99" height="221.99"/><path d="M281.81,29.77h64.94a50,50,0,0,1,24,6,55.7,55.7,0,0,1,18.62,16.14,56.61,56.61,0,0,1,10,22.24,51.38,51.38,0,0,1,1.13,11.12A56.52,56.52,0,0,1,393.72,112a52.8,52.8,0,0,1-18.5,19.94,48.59,48.59,0,0,1-26.6,7.5H310.53l0,57.9q-.09,4.71-4.46,4.71H281.91c-2.44,0-3.88-1-4.32-3.14a10.55,10.55,0,0,1-.09-1.57l-.06-162.95Q277.79,29.77,281.81,29.77Zm28.65,80.87H340a34.49,34.49,0,0,0,14.79-3.39A30.7,30.7,0,0,0,366.51,98a20.59,20.59,0,0,0,4.42-12.88,37.37,37.37,0,0,0-.69-6.16,30.12,30.12,0,0,0-4.9-11.3,26.45,26.45,0,0,0-9.4-8.22,27.9,27.9,0,0,0-13.35-3.09H309.46Z"/><path d="M433.4,29.77h69.79a52.41,52.41,0,0,1,24.95,6.16,58,58,0,0,1,31,50.41,52.67,52.67,0,0,1-8,27.38,59.4,59.4,0,0,1-20.74,20.61l30.92,62.74a3.55,3.55,0,0,1,0,3.38,3,3,0,0,1-2.86,1.57H532.64a5.22,5.22,0,0,1-3.08-.84,8.18,8.18,0,0,1-2.27-3.27l-27-55.48H462.16l.08,55c-.07,3.06-1.57,4.59-4.48,4.59H433.5c-2.44,0-3.87-1-4.29-3a10.55,10.55,0,0,1-.09-1.57L429,34.36Q429.26,29.77,433.4,29.77Zm28.75,83h34.19a33.91,33.91,0,0,0,15.32-3.68,33,33,0,0,0,12-9.91,22.34,22.34,0,0,0,4.65-13.48,26.67,26.67,0,0,0-.55-6A26.14,26.14,0,0,0,518.2,64.1q-7.59-6-18.82-6H461.64Z"/><path d="M592.8,29.77h111q3.9,0,4.53,3a10.66,10.66,0,0,1,.09,1.57l.07,22.49c-.08,3.06-1.61,4.59-4.61,4.59H621.62V96.62H684.3q4.26,0,5,3.38a5.79,5.79,0,0,1,.15,1.33l0,22q0,4.59-5.08,4.59h-62.7l0,42.55h84.35q3.9,0,4.58,3.27a5.86,5.86,0,0,1,.16,1.33l0,22.36c-.08,3.06-1.65,4.59-4.73,4.59H592.9c-2.44,0-3.88-1-4.3-3a9.69,9.69,0,0,1-.08-1.57l-.09-163.07Q588.54,29.77,592.8,29.77Z"/><path d="M733.6,170.72a4.73,4.73,0,0,1,1.56-4.48L748,153.07a4.57,4.57,0,0,1,3-1.33c1.18,0,2.77.84,4.78,2.54q18.87,18.5,40.17,18.49a36.75,36.75,0,0,0,15.55-3.14,25.73,25.73,0,0,0,10.5-8.4,19.54,19.54,0,0,0,3.79-11.06,15.91,15.91,0,0,0-.33-3.27Q823.82,138.68,815,134a103.34,103.34,0,0,0-21.27-8.1,112.28,112.28,0,0,1-26.2-10.52A72.87,72.87,0,0,1,748,99.82a42,42,0,0,1-9.81-19,33.3,33.3,0,0,1-.76-7.61q0-14.27,7-24.78t20.12-16.2q13.13-5.68,31.23-5.68,13.95,0,29,7.25A83.72,83.72,0,0,1,850.26,52.5a7,7,0,0,1,2,3.38c.39,1.85-.29,3.71-2,5.56L840.11,72A4.74,4.74,0,0,1,837,73.41a5.07,5.07,0,0,1-2.57-.73,20.68,20.68,0,0,1-3-2.17Q814.19,56,799.05,56a42,42,0,0,0-19.3,4.17q-8.18,4.17-8.07,14.93a16.75,16.75,0,0,0,.32,3.26,14.86,14.86,0,0,0,5.32,8.53A38.87,38.87,0,0,0,788.17,93q6.57,2.54,16.87,5.44a218.69,218.69,0,0,1,26.56,10A61.64,61.64,0,0,1,850,121.28a38.36,38.36,0,0,1,10,19.34,50.32,50.32,0,0,1,1,10.63,46.29,46.29,0,0,1-8.45,27.62,56.47,56.47,0,0,1-22.67,18.68,71.49,71.49,0,0,1-30.74,6.65,72.42,72.42,0,0,1-23.36-4,96.79,96.79,0,0,1-21.9-10.58,94.09,94.09,0,0,1-17.58-14.56A10.41,10.41,0,0,1,733.6,170.72Z"/><path d="M885.07,170.72a4.75,4.75,0,0,1,1.56-4.48l12.87-13.17a4.57,4.57,0,0,1,3-1.33c1.18,0,2.77.84,4.78,2.54q18.87,18.5,40.17,18.49A36.75,36.75,0,0,0,963,169.63a25.73,25.73,0,0,0,10.5-8.4,19.54,19.54,0,0,0,3.79-11.06,16.64,16.64,0,0,0-.32-3.27q-1.71-8.22-10.56-12.93a103.34,103.34,0,0,0-21.27-8.1A112.28,112.28,0,0,1,919,115.35a72.66,72.66,0,0,1-19.49-15.53,42,42,0,0,1-9.82-19,33.3,33.3,0,0,1-.76-7.61q0-14.27,7-24.78T916,32.19q13.13-5.68,31.23-5.68,13.95,0,28.95,7.25a83.72,83.72,0,0,1,25.55,18.74,7,7,0,0,1,2,3.38c.39,1.85-.29,3.71-2,5.56L991.58,72a4.74,4.74,0,0,1-3.13,1.45,5.07,5.07,0,0,1-2.57-.73,21.24,21.24,0,0,1-3-2.17Q965.66,56,950.53,56a42,42,0,0,0-19.31,4.17Q923,64.34,923.15,75.1a16.75,16.75,0,0,0,.32,3.26,14.86,14.86,0,0,0,5.32,8.53A38.93,38.93,0,0,0,939.65,93q6.55,2.54,16.86,5.44a218.69,218.69,0,0,1,26.56,10,61.51,61.51,0,0,1,18.36,12.88,38.36,38.36,0,0,1,10,19.34,50.32,50.32,0,0,1,1,10.63,46.29,46.29,0,0,1-8.45,27.62,56.47,56.47,0,0,1-22.67,18.68,71.49,71.49,0,0,1-30.74,6.65,72.46,72.46,0,0,1-23.36-4,96.79,96.79,0,0,1-21.9-10.58,94.09,94.09,0,0,1-17.58-14.56A10.41,10.41,0,0,1,885.07,170.72Z"/><path class="cls-2" d="M141.73,99.05q-3.21,3.67-9.07,3.68-7.47,0-10.14-5.77-1.59-3.57-1.6-12.91V68.93H59.31v36.8H86q0-9.81,1.35-13.09,2.43-5.72,10-5.72a12,12,0,0,1,8.37,3.54,18.9,18.9,0,0,1,2.43,9.82v32.43q0,14.17-10.67,14.17a10.5,10.5,0,0,1-9.07-4.49,44.23,44.23,0,0,1-2.13-14.86H59.31v50.15H83q13.17,0,13.17,11.85a15.7,15.7,0,0,1-3.2,9.37,12.26,12.26,0,0,1-8.8,3.3H23q-11.74,0-11.74-12.67,0-11.85,13.87-11.85H34V68.93h-4.8q-10.14,0-14-2.82T11.3,56.53a11,11,0,0,1,2.94-8.08q2.13-3.24,8.53-4H132.66q12.27,0,12.27,13.35v33A12.33,12.33,0,0,1,141.73,99.05Z"/><path class="cls-2" d="M196.94,197.3q-7.2,6.81-18.67,6.81-11.21,0-18.41-6.54t-7.2-17.17a22,22,0,0,1,7.34-17q7.32-6.68,18.27-6.68,25.86,0,25.87,23.71A22.32,22.32,0,0,1,196.94,197.3Z"/></g></g></svg>